<?xml version="1.0" standalone="no"?>
<!DOCTYPE svg PUBLIC "-//W3C//DTD SVG 20010904//EN"
 "http://www.w3.org/TR/2001/REC-SVG-20010904/DTD/svg10.dtd">
<svg version="1.0" xmlns="http://www.w3.org/2000/svg"
 width="50.000000pt" height="50.000000pt" viewBox="0 0 50.000000 50.000000"
 preserveAspectRatio="xMidYMid meet">

<g transform="translate(0.000000,50.000000) scale(0.100000,-0.100000)"
fill="#000000" stroke="none">
<path d="M0 250 l0 -250 250 0 250 0 0 250 0 250 -250 0 -250 0 0 -250z m364
110 l107 -110 -20 -27 c-11 -16 -60 -68 -110 -118 l-91 -89 -41 39 c-22 22
-71 74 -109 115 l-68 76 105 112 c57 62 108 112 112 112 4 0 56 -49 115 -110z"/>
<path d="M210 397 c-19 -23 -28 -36 -19 -29 20 15 64 19 104 8 l30 -7 -34 35
c-19 20 -37 36 -40 35 -4 0 -22 -19 -41 -42z"/>
<path d="M234 352 c-40 -6 -66 -45 -62 -93 2 -23 9 -44 16 -47 9 -3 11 6 6 35
-4 31 -1 43 16 61 18 20 29 23 57 17 25 -4 34 -3 31 6 -5 15 -37 26 -64 21z"/>
<path d="M111 296 c-24 -24 -42 -48 -40 -54 2 -5 44 -51 93 -103 l88 -94 93
100 93 100 -46 48 c-44 45 -47 46 -63 30 -18 -20 -32 -110 -18 -119 12 -7 31
46 26 73 -2 13 2 28 9 34 18 15 30 -53 15 -89 -12 -28 -96 -122 -109 -122 -11
0 -88 81 -101 107 -14 27 -14 88 -1 114 16 28 9 24 -39 -25z"/>
<path d="M227 293 c-4 -3 -7 -17 -7 -31 0 -21 2 -22 15 -12 12 10 18 10 30 0
12 -10 16 -9 21 4 11 30 -37 62 -59 39z"/>
<path d="M220 205 l-24 -26 27 -27 27 -27 27 27 27 27 -24 26 c-13 14 -26 25
-30 25 -4 0 -17 -11 -30 -25z m46 -16 c10 -17 -13 -36 -27 -22 -12 12 -4 33
11 33 5 0 12 -5 16 -11z"/>
</g>
</svg>
