<?xml version="1.0" standalone="no"?>
<!DOCTYPE svg PUBLIC "-//W3C//DTD SVG 20010904//EN"
 "http://www.w3.org/TR/2001/REC-SVG-20010904/DTD/svg10.dtd">
<svg version="1.0" xmlns="http://www.w3.org/2000/svg"
 width="280.000000pt" height="280.000000pt" viewBox="0 0 280.000000 280.000000"
 preserveAspectRatio="xMidYMid meet">
<metadata>
Created by potrace 1.16, written by Peter Selinger 2001-2019
</metadata>
<g transform="translate(0.000000,280.000000) scale(0.100000,-0.100000)"
fill="#000000" stroke="none">
<path d="M0 1400 l0 -1400 1400 0 1400 0 0 1400 0 1400 -1400 0 -1400 0 0
-1400z m1475 1208 c32 -35 102 -108 155 -163 53 -55 186 -194 295 -310 110
-115 290 -304 400 -420 110 -115 229 -240 264 -277 l64 -68 -114 -117 c-63
-65 -323 -338 -578 -608 -255 -269 -484 -510 -508 -535 l-43 -45 -93 95 c-115
117 -1034 1083 -1099 1156 -27 29 -48 56 -48 60 0 4 53 62 118 128 65 67 248
258 407 426 499 526 705 740 715 740 4 0 33 -28 65 -62z"/>
<path d="M1314 2377 c-49 -51 -179 -187 -289 -302 -109 -116 -288 -302 -395
-415 -108 -113 -214 -224 -235 -248 l-38 -43 19 -24 c10 -13 145 -156 300
-317 154 -161 381 -400 505 -530 l224 -237 70 72 c39 40 162 169 275 287 112
118 290 305 395 415 105 110 219 230 255 268 l63 67 -84 88 c-46 48 -138 143
-203 212 -66 69 -156 163 -201 210 -230 241 -494 518 -524 552 -19 21 -37 38
-41 38 -4 0 -47 -42 -96 -93z m272 -242 c89 -30 173 -77 241 -134 101 -86 101
-77 3 -178 -47 -49 -96 -100 -109 -115 l-23 -27 21 -43 c57 -119 48 -250 -25
-365 l-33 -52 46 -51 46 -51 24 23 c39 36 91 137 107 208 20 85 20 186 0 259
l-17 60 59 66 58 67 23 -49 c72 -148 71 -392 -2 -557 -49 -110 -67 -132 -403
-484 -102 -105 -188 -192 -191 -192 -14 0 -504 525 -536 574 -52 78 -93 191
-106 294 -23 169 18 345 110 481 87 128 254 243 402 276 79 18 235 13 305 -10z"/>
<path d="M1340 1983 c-216 -36 -373 -204 -410 -440 -12 -71 -1 -163 29 -248
22 -62 81 -155 97 -155 13 0 96 90 92 99 -2 3 -18 36 -37 73 -107 214 12 470
240 518 72 15 141 5 216 -31 l45 -22 49 49 c27 26 49 51 49 54 0 13 -128 79
-182 94 -52 15 -130 19 -188 9z"/>
<path d="M1340 1684 c-124 -54 -176 -213 -104 -321 l17 -27 72 79 73 79 81
-84 c79 -83 82 -84 97 -65 48 60 58 159 23 232 -48 99 -165 148 -259 107z"/>
<path d="M1388 1301 c-1 -4 -61 -70 -133 -145 -71 -75 -130 -142 -130 -150 0
-8 65 -80 144 -162 l144 -147 75 79 c41 43 106 111 144 150 l70 72 -148 156
c-82 86 -152 156 -155 156 -4 0 -9 -4 -11 -9z m64 -203 c22 -24 50 -55 64 -69
l24 -26 -61 -66 c-33 -37 -67 -67 -74 -67 -15 0 -125 119 -125 135 0 9 120
135 129 135 2 0 22 -19 43 -42z"/>
</g>
</svg>
